#tb 0: 1/25
0,          0,          0,        1,   488448, 0x4425756b
0,          1,          1,        1,   488448, 0x04dd16e6
0,          2,          2,        1,   488448, 0x2bcbbceb
0,          3,          3,        1,   488448, 0x7cdb0233
0,          4,          4,        1,   488448, 0xfea6b19f
0,          5,          5,        1,   488448, 0xdc52c70b
0,          6,          6,        1,   488448, 0xd0e542ac
0,          7,          7,        1,   488448, 0x7da62502
0,          8,          8,        1,   488448, 0xbbe0ba18
0,          9,          9,        1,   488448, 0x29d7e5a6
0,         10,         10,        1,   488448, 0x9428b9ee
0,         11,         11,        1,   488448, 0x83b3cc4f
0,         12,         12,        1,   488448, 0x6fbe351f
0,         13,         13,        1,   488448, 0x27b165e0
0,         14,         14,        1,   488448, 0xc1301e0c
0,         15,         15,        1,   488448, 0x585778a3
0,         16,         16,        1,   488448, 0x3a9a5a24
0,         17,         17,        1,   488448, 0x5f238e1a
0,         18,         18,        1,   488448, 0xccbbd463
0,         19,         19,        1,   488448, 0x5e819b1b
0,         20,         20,        1,   488448, 0x1ac67c1e
0,         21,         21,        1,   488448, 0xa30d486e
0,         22,         22,        1,   488448, 0x79981486
0,         23,         23,        1,   488448, 0x542c8325
0,         24,         24,        1,   488448, 0x8fdf8efd
0,         25,         25,        1,   488448, 0x11ad9232
0,         26,         26,        1,   488448, 0x26bd6353
0,         27,         27,        1,   488448, 0xfcb3873d
0,         28,         28,        1,   488448, 0x4c14852e
0,         29,         29,        1,   488448, 0x738ce85a
0,         30,         30,        1,   488448, 0xdb84785a
0,         31,         31,        1,   488448, 0x2b92ab6d
0,         32,         32,        1,   488448, 0x6487d4c5
0,         33,         33,        1,   488448, 0xbad7f74e
0,         34,         34,        1,   488448, 0x2f5c9612
0,         35,         35,        1,   488448, 0x5eb7b32d
0,         36,         36,        1,   488448, 0xa624f119
0,         37,         37,        1,   488448, 0xbf5d39d1
0,         38,         38,        1,   488448, 0xb599e8bf
0,         39,         39,        1,   488448, 0x9137df1d
0,         40,         40,        1,   488448, 0x48ddaa52
0,         41,         41,        1,   488448, 0x7a0d8c38
0,         42,         42,        1,   488448, 0x1b3f05db
0,         43,         43,        1,   488448, 0x09665339
0,         44,         44,        1,   488448, 0x9fb1fc46
0,         45,         45,        1,   488448, 0x73a73835
0,         46,         46,        1,   488448, 0x2deb500f
0,         47,         47,        1,   488448, 0x750c86a0
0,         48,         48,        1,   488448, 0x55b2b0bf
0,         49,         49,        1,   488448, 0xeedae5ec
